<?xml version="1.0" standalone="no"?>
<!DOCTYPE svg PUBLIC "-//W3C//DTD SVG 20010904//EN"
 "http://www.w3.org/TR/2001/REC-SVG-20010904/DTD/svg10.dtd">
<svg version="1.0" xmlns="http://www.w3.org/2000/svg"
 width="3508.000000pt" height="2480.000000pt" viewBox="0 0 3508.000000 2480.000000"
 preserveAspectRatio="xMidYMid meet">
<metadata>
Created by potrace 1.15, written by Peter Selinger 2001-2017
</metadata>
<g transform="translate(0.000000,2480.000000) scale(0.100000,-0.100000)"
fill="#ffffff" stroke="none">
<path d="M6430 18990 c-11 -11 -20 -31 -20 -43 0 -29 57 -238 155 -572 96
-325 172 -623 234 -915 45 -208 53 -238 76 -257 14 -13 37 -23 50 -23 20 0 24
-6 30 -52 3 -29 17 -136 31 -238 13 -102 29 -222 35 -267 6 -46 14 -81 19 -78
35 22 1 590 -56 930 -63 376 -232 995 -362 1325 -35 90 -71 175 -79 187 -20
30 -84 32 -113 3z"/>
<path d="M5636 18959 c-45 -35 -35 -80 88 -408 108 -288 466 -1276 466 -1286
0 -2 -11 -6 -25 -9 -28 -7 -48 -39 -47 -76 0 -15 37 -179 81 -366 44 -186 96
-419 115 -516 26 -130 42 -188 61 -218 l25 -40 -32 -20 c-34 -21 -57 -28 -173
-55 -111 -25 -274 -107 -412 -207 -29 -21 -54 -38 -57 -38 -2 0 -30 78 -61
173 -100 299 -260 644 -437 941 -144 242 -182 276 -245 222 l-28 -24 19 -69
c23 -89 126 -340 216 -529 115 -241 203 -455 276 -671 37 -111 66 -204 63
-206 -40 -27 -195 -178 -240 -234 l-61 -73 -45 39 c-36 32 -265 180 -333 216
-8 4 32 -41 90 -101 87 -91 119 -116 188 -152 72 -38 82 -45 71 -59 -16 -18
-79 -161 -79 -178 0 -6 -6 -19 -12 -28 -12 -16 -25 -13 -168 36 -213 74 -361
115 -667 186 -392 91 -592 121 -806 121 -134 0 -194 -9 -209 -32 -16 -26 -8
-67 16 -83 53 -35 337 -119 611 -181 466 -104 849 -202 1137 -290 14 -4 16 -9
8 -25 -34 -62 -116 -344 -145 -499 -9 -47 -18 -94 -21 -106 -3 -17 -18 -23
-86 -38 -257 -54 -854 -211 -1023 -269 -163 -56 -430 -176 -538 -242 -136 -82
-175 -136 -129 -178 38 -35 256 9 507 103 219 81 504 176 690 230 94 27 257
76 364 109 107 33 195 60 196 58 13 -20 35 -229 35 -317 -2 -222 36 -413 150
-760 28 -85 53 -174 57 -197 6 -42 5 -43 -24 -43 -38 0 -50 -14 -59 -67 -15
-96 58 -269 178 -420 89 -111 325 -377 431 -485 47 -48 76 -86 73 -94 -3 -8
-27 -47 -54 -87 -81 -119 -323 -522 -433 -719 -56 -100 -110 -194 -119 -208
-30 -42 -154 -298 -215 -440 -101 -237 -114 -291 -75 -330 20 -20 74 -27 96
-12 17 11 80 127 224 407 131 256 227 432 280 510 15 22 38 60 52 85 14 25 34
61 45 80 11 19 40 69 63 110 100 175 176 288 224 332 33 31 47 50 40 55 -16
12 -9 39 22 86 l27 41 26 -32 c19 -24 34 -32 58 -32 19 0 33 -6 35 -14 6 -24
46 1 62 39 8 19 19 35 23 35 5 0 24 -13 43 -29 l35 -28 -32 -7 c-40 -9 -80
-48 -88 -87 -11 -49 38 -136 103 -180 70 -49 150 -65 337 -68 82 -1 151 -4
152 -5 2 -1 -17 -43 -40 -92 -69 -141 -195 -491 -227 -631 -34 -145 -33 -143
-20 -143 6 0 10 4 10 9 0 20 211 480 280 611 15 28 65 172 86 248 2 7 20 12
43 12 l40 0 -35 -77 c-66 -145 -72 -158 -109 -248 -171 -411 -436 -1125 -525
-1416 -144 -467 -202 -695 -226 -886 -21 -179 -15 -300 16 -325 28 -23 52 -23
78 0 22 18 98 247 176 527 57 208 266 888 275 898 4 4 4 -20 -1 -53 -4 -34
-17 -151 -28 -261 -11 -110 -31 -304 -45 -432 -13 -128 -33 -349 -45 -492 -11
-143 -25 -307 -30 -365 -15 -163 -13 -281 6 -308 24 -35 59 -44 99 -27 19 7
35 20 36 27 0 7 2 22 4 33 11 58 71 567 114 975 50 465 68 651 96 980 8 96 20
235 27 308 11 126 11 134 -8 159 l-20 26 67 196 c36 108 103 295 147 416 88
242 105 297 104 337 -1 24 4 28 36 35 56 11 111 7 170 -10 30 -9 90 -18 135
-19 l82 -3 7 -70 c48 -467 71 -653 84 -698 12 -39 90 -53 125 -21 25 23 25
122 -1 479 -11 149 -20 280 -20 291 0 23 10 26 135 40 l61 6 35 -89 36 -89
-33 0 c-22 0 -43 -9 -59 -24 l-26 -25 6 -385 c11 -713 47 -1425 90 -1790 66
-558 143 -929 261 -1260 67 -189 74 -200 118 -200 69 0 96 57 66 135 -6 17
-29 131 -50 255 -22 124 -57 312 -79 418 -65 313 -118 719 -146 1117 -19 271
-36 578 -70 1250 l-27 520 -39 85 c-46 101 -51 95 105 111 200 20 465 79 702
156 l52 16 43 -37 c254 -217 460 -361 774 -544 339 -196 700 -365 1124 -524
161 -60 394 -128 442 -128 43 0 74 76 47 113 -15 19 -179 97 -418 199 -681
290 -1234 593 -1654 906 l-129 96 96 32 c211 71 461 239 570 383 44 59 45 62
32 89 -13 24 -13 27 2 33 10 3 42 -4 73 -17 81 -32 524 -125 595 -124 6 0 -87
42 -205 94 -118 51 -251 109 -295 128 -44 20 -88 38 -98 42 -16 5 -12 13 32
61 28 31 55 71 60 91 5 19 32 62 59 97 99 125 187 292 176 334 -3 10 9 59 26
108 18 50 34 100 37 112 l5 21 376 -5 c208 -3 375 -3 372 0 -4 4 -80 15 -171
27 -91 11 -217 29 -280 40 -63 11 -149 26 -192 32 l-78 12 5 56 c3 30 5 75 5
100 l1 45 186 2 c104 1 248 9 327 19 158 19 207 31 142 35 -79 5 225 17 455
18 257 2 318 10 495 69 l90 31 -280 -3 c-248 -2 -307 -6 -515 -33 -129 -18
-317 -37 -418 -44 -100 -7 -178 -16 -171 -19 6 -4 -55 -9 -135 -12 -96 -3
-151 -9 -161 -18 -13 -11 -15 -8 -15 19 0 17 7 48 16 69 29 65 42 222 39 467
-4 353 -38 559 -153 931 l-10 31 95 18 c52 9 151 32 221 49 100 25 128 36 130
50 4 17 -1 18 -65 12 -37 -4 -137 -20 -222 -37 -85 -16 -162 -29 -171 -29 -10
0 -42 39 -78 95 -50 76 -62 102 -62 135 0 22 4 40 9 40 11 0 135 140 129 145
-4 4 -89 -17 -169 -41 -11 -3 -29 14 -56 53 -59 84 -192 205 -343 313 -78 56
-218 169 -303 246 -48 43 -49 45 -32 64 14 15 15 20 4 20 -8 0 -2 8 13 18 22
14 86 89 171 199 5 7 -39 -10 -97 -37 -160 -75 -190 -91 -204 -111 -18 -26
-26 -24 -85 20 -76 57 -166 106 -250 135 -98 34 -145 40 -196 26 -24 -6 -45
-10 -46 -8 -2 2 7 46 19 98 110 447 179 879 246 1537 39 383 51 750 31 934
-13 116 -17 128 -47 140 -36 13 -70 -5 -83 -43 -48 -149 -100 -489 -196 -1272
-55 -447 -116 -860 -137 -926 -13 -44 -135 -151 -148 -131 -5 9 -32 -9 -94
-64 -47 -42 -86 -80 -86 -85 0 -5 -9 -14 -21 -20 -16 -9 -24 -8 -38 4 -25 23
-126 46 -201 46 -74 0 -211 -22 -315 -50 -204 -56 -317 -79 -342 -69 -35 13
-156 17 -223 7 -30 -5 -71 -11 -90 -13 -19 -3 -85 -23 -146 -44 l-110 -38 -20
37 -21 37 30 9 c17 5 38 20 48 34 18 24 18 28 -2 125 -11 55 -22 120 -24 145
-8 72 -31 182 -78 377 l-44 182 28 6 c32 7 69 48 69 76 0 31 -199 626 -315
939 -172 465 -347 880 -393 933 -20 23 -63 22 -96 -4z"/>
<path d="M10527 17398 c-13 -13 -35 -44 -49 -68 -14 -25 -115 -202 -223 -395
-109 -192 -209 -366 -222 -385 -30 -45 -30 -94 1 -125 l23 -23 -41 -41 c-22
-22 -68 -51 -101 -66 -61 -26 -68 -34 -110 -110 -49 -91 -89 -144 -114 -155
-24 -10 -274 -250 -260 -250 3 0 32 9 64 20 77 26 80 26 52 -12 -45 -61 -40
-63 19 -6 50 48 72 60 142 83 84 28 84 28 140 104 31 42 81 99 112 128 42 40
49 51 31 46 -26 -7 -25 -4 11 50 11 15 16 27 13 27 -4 0 13 24 37 53 64 76
167 241 315 502 200 354 295 544 288 576 -8 34 -33 57 -72 65 -25 5 -37 1 -56
-18z"/>
<path d="M11243 16607 c-55 -19 -77 -36 -188 -145 -70 -68 -124 -126 -122
-128 2 -3 55 17 118 43 l114 48 78 103 c43 56 75 102 70 101 -4 0 -36 -10 -70
-22z"/>
<path d="M21390 14890 c-94 -11 -195 -36 -275 -69 -38 -16 -110 -41 -160 -57
-256 -79 -419 -212 -460 -376 -21 -85 -17 -358 9 -533 9 -66 22 -156 28 -200
23 -180 124 -437 216 -550 64 -78 252 -271 297 -303 136 -100 253 -157 392
-192 113 -28 409 -28 549 0 241 48 439 158 592 325 73 79 92 106 151 210 90
158 105 241 91 530 -15 289 -113 582 -282 840 -86 131 -189 214 -366 298 -156
73 -195 79 -472 82 -135 2 -274 0 -310 -5z"/>
<path d="M23400 14415 c-14 -8 -33 -14 -42 -15 -32 0 -41 -37 -30 -114 6 -39
14 -104 17 -144 7 -94 85 -315 133 -375 5 -6 12 -41 15 -75 4 -49 13 -77 40
-120 18 -32 47 -88 62 -125 21 -51 42 -80 79 -114 57 -50 118 -82 157 -83 19
0 35 -11 55 -37 15 -21 77 -91 138 -156 83 -89 118 -119 146 -127 20 -5 49
-24 65 -41 46 -48 76 -59 160 -59 63 0 78 3 96 21 19 19 21 29 16 88 -7 84
-85 308 -131 376 -19 28 -52 91 -75 140 l-42 90 16 52 c15 46 15 63 5 125 -17
98 -23 111 -125 234 -28 36 -114 83 -181 101 -21 5 -46 26 -73 60 -23 29 -68
74 -100 100 -32 27 -90 73 -127 104 -50 41 -90 64 -145 83 -87 30 -95 31 -129
11z m308 -282 c45 -46 82 -87 82 -92 0 -5 -28 -21 -62 -35 -35 -15 -84 -41
-111 -57 -26 -16 -49 -29 -51 -29 -2 0 -15 20 -29 43 -24 44 -83 284 -73 295
3 3 18 0 32 -7 35 -16 40 -9 17 25 -33 50 102 -49 195 -143z m508 -805 c48
-81 118 -252 130 -315 12 -62 -17 -42 -131 92 -70 82 -155 194 -155 203 0 4
13 16 30 25 16 10 39 31 50 47 12 17 23 30 25 30 2 0 25 -37 51 -82z"/>
<path d="M25230 14385 c0 -8 5 -15 10 -15 6 0 10 -7 10 -16 0 -9 9 -18 19 -21
18 -5 71 -104 71 -134 0 -11 3 -11 11 1 9 12 10 11 6 -8 -3 -12 -1 -20 3 -17
8 5 41 -115 34 -123 -1 -2 -36 2 -78 9 -58 10 -86 10 -126 1 -28 -7 -55 -12
-59 -12 -10 0 3 59 36 170 15 47 29 102 33 123 13 67 -21 40 -68 -54 -38 -75
-44 -97 -49 -170 l-6 -84 -61 -58 c-33 -32 -76 -70 -94 -84 -18 -14 -45 -47
-60 -72 -23 -39 -27 -56 -26 -116 1 -39 7 -89 13 -112 13 -46 90 -144 137
-173 27 -17 34 -32 58 -122 16 -57 34 -143 40 -193 l11 -90 36 3 c35 3 36 2
43 -36 6 -42 29 -71 41 -52 4 6 13 7 23 1 21 -11 60 3 68 24 4 8 17 15 30 15
34 0 47 34 46 122 0 42 5 107 11 144 l13 68 44 14 c46 16 113 77 158 144 34
53 47 169 27 256 -23 99 -58 160 -145 252 -73 78 -86 99 -81 138 3 21 -30 174
-46 214 -9 23 -28 45 -49 58 -42 24 -84 27 -84 5z m-81 -1065 c21 -10 67 -24
101 -29 35 -6 65 -12 67 -15 5 -4 -6 -69 -39 -246 l-10 -54 -21 39 c-11 22
-32 76 -47 120 -32 94 -69 175 -80 175 -4 0 -10 7 -14 15 -7 19 -3 19 43 -5z"/>
<path d="M16755 14360 c-49 -13 -107 -40 -162 -76 -28 -19 -83 -51 -121 -72
-38 -20 -77 -44 -88 -52 -30 -23 -89 -101 -111 -145 -11 -22 -35 -65 -54 -95
-34 -55 -34 -55 -33 -175 1 -136 18 -201 78 -290 18 -27 48 -77 67 -110 104
-189 260 -277 477 -269 305 11 531 186 622 480 24 79 27 248 6 334 -38 151
-139 290 -271 371 -22 13 -47 29 -56 34 -57 35 -101 54 -147 64 -59 12 -161
13 -207 1z"/>
<path d="M14848 14130 c-21 -4 -69 -28 -108 -54 -56 -37 -75 -56 -92 -94 -13
-26 -36 -65 -53 -87 -61 -78 -68 -109 -50 -213 17 -95 24 -115 69 -184 50 -78
124 -142 183 -157 26 -7 71 -23 98 -36 74 -35 181 -42 272 -17 57 15 83 29
132 72 61 53 132 156 157 229 44 127 -35 381 -148 476 -52 44 -157 69 -298 71
-69 1 -142 -2 -162 -6z"/>
<path d="M19055 14050 c-85 -7 -164 -25 -205 -46 -93 -47 -192 -261 -176 -381
8 -62 69 -183 126 -251 43 -51 62 -65 128 -92 72 -30 82 -32 157 -26 120 9
258 60 330 121 76 65 95 105 95 197 -1 160 -16 254 -55 333 -41 85 -69 109
-158 136 -64 19 -104 21 -242 9z"/>
<path d="M26515 14046 c-132 -35 -215 -98 -266 -204 -19 -38 -21 -56 -17 -132
5 -79 10 -96 49 -171 49 -94 126 -176 192 -208 67 -31 173 -36 252 -12 89 28
103 36 158 94 59 62 71 85 87 161 29 142 -20 306 -121 400 -28 27 -67 54 -85
62 -49 20 -189 26 -249 10z"/>
<path d="M12920 14020 c-74 -8 -164 -53 -203 -100 -14 -16 -39 -59 -57 -95
-32 -66 -33 -68 -28 -184 5 -105 8 -122 36 -177 37 -73 86 -119 144 -135 27
-7 87 -9 160 -6 115 5 117 5 191 47 161 92 202 218 144 441 -18 69 -78 154
-126 178 -20 10 -66 21 -103 25 -37 4 -73 8 -80 10 -7 2 -42 0 -78 -4z"/>
<path d="M27815 13920 c-16 -4 -42 -11 -57 -14 -47 -11 -146 -101 -157 -143
-25 -88 -2 -224 48 -283 19 -23 48 -39 112 -60 77 -26 93 -28 149 -20 90 13
181 83 224 175 26 54 21 140 -13 210 -37 78 -54 92 -148 121 -82 25 -108 28
-158 14z"/>
<path d="M4110 13202 c-261 -141 -400 -222 -743 -428 -710 -429 -1137 -756
-1408 -1079 -130 -156 -167 -244 -117 -279 12 -9 29 -16 36 -16 22 0 98 56
302 225 330 272 449 367 600 476 336 244 722 500 1275 849 143 90 269 171 279
181 28 26 25 85 -6 115 -45 44 -62 41 -218 -44z"/>
<path d="M17475 13145 c-5 -2 -22 -6 -37 -9 -72 -16 -135 -116 -126 -200 21
-180 197 -261 334 -154 53 43 79 146 53 215 -16 42 -74 109 -111 126 -35 16
-96 29 -113 22z"/>
<path d="M4126 12579 c-289 -99 -290 -99 -324 -83 -40 19 -48 16 -292 -106
-324 -162 -580 -317 -910 -550 -106 -75 -332 -286 -356 -333 -21 -39 -4 -80
43 -102 39 -19 42 -18 135 58 127 103 357 265 582 409 128 83 740 438 753 438
3 0 119 62 257 139 138 76 289 159 336 185 47 25 81 46 75 45 -5 0 -140 -45
-299 -100z"/>
<path d="M10305 11855 c22 -9 146 -50 275 -92 l235 -76 185 -4 c102 -3 183 -3
180 0 -3 3 -95 38 -205 77 l-200 72 -180 13 c-99 7 -214 16 -255 19 l-75 6 40
-15z"/>
<path d="M8717 10813 c8 -32 18 -74 24 -94 6 -26 25 -49 74 -87 36 -29 65 -47
65 -40 0 7 -10 46 -22 86 -20 67 -26 77 -89 133 l-67 59 15 -57z"/>
</g>
</svg>
