<?xml version="1.0" standalone="no"?>
<!DOCTYPE svg PUBLIC "-//W3C//DTD SVG 20010904//EN"
 "http://www.w3.org/TR/2001/REC-SVG-20010904/DTD/svg10.dtd">
<svg version="1.0" xmlns="http://www.w3.org/2000/svg"
 width="512.000000pt" height="512.000000pt" viewBox="0 0 512.000000 512.000000"
 preserveAspectRatio="xMidYMid meet">
<metadata>
Created by potrace 1.15, written by Peter Selinger 2001-2017
</metadata>
<g transform="translate(0.000000,512.000000) scale(0.100000,-0.100000)"
fill="#7FFF00" stroke="none">
<path d="M3620 4521 c0 -5 -15 -15 -34 -21 -19 -6 -40 -18 -47 -26 -10 -12
-14 -12 -20 -2 -6 9 -12 8 -28 -6 -11 -10 -35 -25 -53 -34 -56 -28 -87 -106
-92 -227 -4 -95 -3 -104 31 -190 19 -49 59 -130 88 -180 29 -49 62 -108 74
-130 11 -22 20 -34 21 -27 0 7 -5 22 -10 33 -7 12 -7 19 -1 19 14 0 28 -17 55
-65 15 -27 28 -39 42 -38 23 2 107 -120 128 -188 45 -144 47 -158 34 -178 -8
-13 -19 -19 -30 -15 -12 3 -18 0 -18 -9 0 -8 -7 -20 -15 -27 -11 -9 -15 -9
-15 -1 0 6 -12 -2 -27 -18 l-28 -29 -85 18 c-106 22 -248 77 -261 102 -6 11
-21 18 -40 18 -16 0 -42 6 -57 14 -15 8 -44 19 -65 24 -33 9 -38 9 -33 -4 8
-22 0 -18 -107 43 -55 31 -121 62 -146 69 -26 6 -69 26 -96 43 -27 17 -54 31
-61 31 -6 0 -14 7 -18 15 -3 8 -10 15 -16 15 -5 0 -41 24 -79 53 -120 93 -451
247 -451 210 0 -16 -105 24 -186 72 -41 25 -82 45 -91 45 -8 0 -27 6 -41 14
-73 39 -155 69 -249 91 -38 9 -126 46 -198 81 -108 55 -137 65 -170 62 l-40
-3 40 -22 c60 -33 9 -30 -55 3 -32 17 -62 25 -87 23 -21 -1 -51 3 -66 10 -38
15 -111 14 -150 -3 -18 -7 -51 -33 -72 -58 -22 -25 -50 -48 -63 -52 -32 -10
-43 -37 -47 -118 -5 -82 1 -98 52 -129 21 -13 41 -27 45 -33 3 -5 21 -14 40
-20 22 -8 34 -18 36 -33 6 -45 131 -123 195 -123 12 0 38 -12 58 -26 20 -14
59 -29 86 -33 29 -4 47 -12 45 -19 -1 -7 10 -12 29 -12 17 0 44 -8 61 -17 28
-17 30 -17 43 0 13 18 15 18 47 1 l33 -18 -32 -9 -32 -9 27 -23 c39 -33 97
-60 182 -86 41 -12 92 -33 112 -47 22 -14 60 -27 95 -31 46 -6 73 -17 128 -54
108 -71 139 -99 123 -108 -9 -6 -10 -9 -1 -9 7 0 28 -13 46 -30 19 -16 44 -30
55 -30 11 0 39 -16 62 -35 33 -28 45 -33 56 -24 8 6 11 16 7 22 -4 7 0 8 13 3
10 -5 31 -13 47 -18 16 -6 27 -18 28 -29 3 -66 2 -84 -7 -84 -45 1 -131 18
-144 29 -10 9 -60 15 -148 20 -104 5 -142 10 -172 26 -22 11 -55 20 -74 20
-19 0 -38 5 -42 11 -5 8 -30 10 -79 6 -65 -6 -149 4 -255 29 -47 11 -9 -10 58
-32 82 -27 105 -25 -339 -26 -328 0 -398 6 -436 35 -7 5 -63 6 -130 2 -66 -4
-157 -2 -206 4 l-87 10 -44 -29 c-24 -17 -53 -30 -65 -30 -38 0 -54 -41 -46
-122 9 -95 35 -155 74 -171 29 -12 30 -14 14 -30 -16 -15 -16 -19 -1 -51 24
-50 93 -73 239 -80 63 -3 121 -5 129 -6 9 -1 5 -6 -10 -13 -20 -9 35 -13 270
-18 162 -4 329 -13 370 -20 42 -7 142 -12 230 -11 145 2 186 -1 380 -26 41 -6
123 -16 182 -22 88 -11 111 -17 132 -36 14 -13 32 -24 41 -24 13 0 12 -6 -9
-31 -14 -17 -26 -39 -26 -49 0 -10 -4 -22 -10 -25 -5 -3 -10 1 -10 11 0 13 -6
15 -32 10 -22 -4 -37 -1 -51 11 -18 17 -19 17 -32 0 -18 -24 -35 -21 -35 7 0
27 -26 54 -40 40 -4 -5 -10 -20 -12 -34 -2 -17 -10 -26 -25 -28 -19 -3 -22 2
-25 35 -5 61 -57 57 -58 -4 0 -21 -5 -23 -49 -23 -28 0 -53 -4 -56 -10 -3 -5
-37 -10 -75 -10 l-68 0 -16 40 c-20 51 -43 61 -68 31 -10 -13 -18 -18 -18 -12
0 19 -39 12 -50 -8 -5 -11 -10 -31 -10 -45 0 -38 -33 -34 -47 5 -16 41 -56 38
-61 -3 -2 -16 -9 -28 -15 -28 -7 -1 -59 -6 -117 -12 -58 -6 -135 -12 -172 -13
-37 -2 -98 -8 -135 -14 -37 -6 -131 -11 -208 -11 -221 0 -291 -19 -310 -85 -4
-11 -14 -34 -23 -52 -13 -26 -14 -39 -5 -75 27 -109 64 -176 105 -191 9 -3 68
-2 129 3 77 6 117 6 125 -1 8 -6 19 -7 26 -2 17 10 178 20 178 11 0 -13 55 -9
69 5 10 10 14 9 22 -5 13 -23 47 -23 72 -1 16 15 20 16 27 3 7 -13 29 -14 147
-7 76 4 197 7 268 6 136 -2 183 -2 250 0 22 1 56 1 75 2 195 2 259 5 266 11 4
4 18 -18 31 -50 13 -31 26 -61 29 -67 2 -5 -9 -18 -26 -27 -18 -10 -30 -25
-30 -38 0 -11 -6 -20 -14 -20 -8 0 -16 -7 -19 -14 -3 -8 -23 -18 -44 -21 -21
-4 -63 -17 -94 -31 -31 -13 -72 -24 -91 -24 -20 0 -55 -8 -79 -19 -24 -10 -68
-22 -98 -25 -29 -4 -75 -18 -101 -32 -34 -18 -82 -29 -166 -40 -65 -9 -126
-20 -136 -25 -9 -5 -51 -16 -92 -24 -42 -7 -95 -25 -119 -39 -24 -15 -51 -26
-59 -26 -9 0 -18 -6 -21 -14 -3 -7 -23 -16 -44 -20 -92 -15 -151 -65 -155
-132 -2 -30 13 -96 28 -126 15 -29 50 -38 70 -18 12 12 25 3 48 -33 27 -44 77
-60 191 -63 55 -1 119 -5 141 -9 33 -5 52 -2 95 19 69 32 131 46 235 51 63 3
96 11 132 29 105 53 673 177 713 155 9 -5 43 -5 75 -1 41 6 69 4 91 -5 26 -10
33 -10 43 2 7 8 10 22 6 30 -9 25 40 18 190 -26 145 -42 254 -57 320 -44 38 7
38 8 14 17 -14 6 -54 16 -90 23 -58 11 -61 13 -24 14 37 1 134 -13 176 -25 12
-3 20 -20 24 -45 7 -42 24 -54 24 -16 0 39 27 46 112 32 147 -26 314 -81 348
-115 3 -3 16 -5 30 -6 14 0 81 -10 149 -22 68 -12 164 -22 213 -22 49 0 97 -4
107 -9 55 -30 416 3 511 47 44 20 110 75 110 91 0 17 89 41 178 47 l92 7 0 88
c0 48 -4 90 -9 93 -5 3 -7 15 -4 26 8 31 -25 26 -123 -20 -48 -22 -91 -40 -95
-40 -17 0 -9 33 26 110 53 118 58 240 10 240 -11 0 -15 13 -15 54 0 58 -13
106 -29 106 -12 0 -26 -46 -41 -135 -6 -38 -20 -88 -30 -110 -11 -22 -21 -73
-25 -113 -6 -86 -37 -152 -70 -149 -12 1 -24 -7 -30 -21 -5 -12 -13 -22 -17
-22 -18 0 -117 -67 -121 -83 -3 -9 -28 -28 -57 -41 -31 -14 -46 -26 -38 -30 7
-3 -25 -3 -72 1 -47 3 -157 6 -245 5 -103 -1 -182 4 -225 13 -36 7 -87 16
-113 19 -27 3 -77 19 -110 34 -74 34 -194 72 -227 72 -15 0 -39 18 -70 51 -44
47 -47 55 -43 90 4 25 1 45 -8 55 -10 12 -14 49 -15 128 0 85 -5 119 -18 144
-10 19 -22 73 -27 120 -22 214 -27 244 -36 250 -6 4 -10 23 -10 42 1 19 0 143
-3 275 -3 213 -4 228 -10 130 -13 -192 -11 -383 6 -605 8 -118 18 -235 22
-260 6 -45 7 -44 13 25 l5 70 2 -76 c2 -82 19 -188 32 -204 6 -7 -4 -22 -25
-40 -19 -16 -35 -34 -35 -42 0 -8 -12 -13 -30 -13 -34 0 -36 -4 -15 -54 8 -20
11 -36 6 -36 -6 0 -21 -11 -35 -25 -30 -30 -70 -32 -110 -6 -25 17 -41 19
-112 14 l-82 -6 -11 39 c-6 21 -11 63 -11 92 0 38 -4 52 -14 52 -21 0 -25 42
-14 169 10 120 0 231 -26 296 -39 94 -60 169 -67 240 -5 44 -18 107 -29 140
-35 110 -48 179 -47 250 0 39 -10 122 -23 185 -12 63 -22 127 -21 143 1 15 -3
27 -9 27 -6 0 -10 6 -8 13 4 20 -12 67 -23 67 -6 0 -7 4 -4 10 3 6 -1 7 -9 4
-19 -7 -20 -15 -4 -66 9 -32 9 -41 -2 -48 -8 -5 -10 -16 -6 -31 4 -13 9 -64
12 -114 3 -49 16 -145 30 -212 13 -68 33 -191 44 -274 10 -84 24 -157 30 -163
9 -8 11 3 9 41 -2 29 -1 55 2 57 3 3 13 -34 23 -82 11 -48 27 -118 36 -157 10
-38 14 -72 10 -75 -4 -3 -2 -40 4 -83 6 -43 14 -75 19 -71 4 4 8 -13 9 -37 l1
-44 7 55 c6 47 7 42 6 -35 l-1 -89 -30 -1 -30 0 2 -85 c1 -47 4 -103 8 -125
l7 -40 -114 -3 c-62 -1 -124 -5 -138 -8 -23 -4 -26 0 -37 47 -7 28 -24 76 -38
106 -14 31 -25 68 -25 83 0 18 -8 33 -24 43 -33 22 -66 95 -70 155 -1 31 -14
74 -33 111 -31 64 -32 76 -3 61 12 -7 21 -6 29 4 18 22 -31 59 -82 62 -23 0
-44 2 -47 4 -3 1 -8 2 -11 2 -3 -1 -2 18 2 41 5 23 12 60 16 82 5 28 8 33 10
18 5 -25 30 -38 48 -23 7 6 18 37 24 69 7 34 18 61 26 65 8 3 15 13 15 21 0 9
11 44 23 78 58 153 57 168 -16 188 -23 6 -51 15 -62 20 -11 4 -49 10 -85 13
-36 3 -94 9 -130 15 -36 5 -97 14 -136 20 -106 15 -124 26 -124 73 0 27 -4 38
-15 38 -11 0 -15 13 -15 54 0 64 -7 86 -26 86 -9 0 -15 -12 -15 -32 -1 -27 -2
-28 -6 -8 -10 66 -13 72 -28 60 -8 -7 -15 -28 -15 -46 0 -23 -5 -34 -14 -34
-8 0 -20 -16 -26 -35 -6 -19 -16 -35 -21 -35 -5 0 -9 -13 -9 -29 0 -37 -15
-41 -155 -40 -100 0 -183 7 -303 25 -57 8 -96 44 -89 80 3 16 -4 45 -17 73
-13 25 -28 57 -35 71 l-11 25 5 -27 c3 -15 1 -36 -4 -45 -6 -10 -20 -40 -31
-68 -45 -108 -57 -114 -249 -115 -143 0 -168 4 -263 41 -26 11 -58 19 -72 19
-21 0 -26 6 -33 38 -10 48 -9 141 1 170 7 17 5 22 -8 22 -9 0 -16 8 -16 18 0
14 8 16 50 14 27 -2 50 -8 50 -14 0 -5 26 -9 57 -8 123 3 427 -10 432 -18 3
-4 62 -8 131 -8 92 1 139 -4 179 -17 76 -24 111 -23 119 5 5 21 6 21 216 15
129 -4 228 -2 255 4 24 5 46 8 48 5 3 -3 -8 -8 -23 -11 -16 -4 -36 -9 -44 -12
-20 -8 49 -21 120 -24 54 -2 49 -3 -58 -15 -30 -3 -51 -8 -49 -11 3 -3 87 -6
186 -8 99 -2 189 -8 198 -13 10 -5 45 -12 77 -15 32 -3 63 -10 69 -16 6 -6 3
-27 -8 -61 -9 -28 -14 -62 -11 -75 7 -27 45 -42 70 -28 17 9 76 118 76 140 0
8 4 12 9 9 9 -6 23 30 26 67 1 10 11 28 22 40 11 12 24 35 27 52 9 38 25 57
40 48 6 -3 8 -3 4 1 -3 4 5 29 18 56 26 53 29 72 14 101 -15 27 -39 24 -76
-12 -33 -32 -54 -32 -54 1 0 11 -9 24 -19 30 -27 14 -34 13 -27 -6 4 -11 -1
-10 -20 5 -15 12 -40 21 -57 21 -42 0 -99 37 -92 60 4 13 -18 32 -104 86
l-109 69 5 35 c3 19 11 46 19 60 46 87 51 119 25 150 -21 24 -21 25 -36 6 -8
-11 -15 -27 -14 -35 0 -9 5 -3 11 12 5 15 14 27 20 25 12 -4 11 -14 -9 -68
l-18 -45 -6 30 c-6 30 -6 30 -13 -10 -12 -72 -21 -90 -40 -87 -11 2 -22 -1
-26 -8 -4 -7 -40 6 -108 41 -66 34 -117 53 -149 56 -55 5 -223 54 -223 64 0 4
9 11 20 14 22 7 26 25 10 41 -11 11 15 74 30 74 13 0 40 55 40 80 0 11 -5 20
-10 20 -16 0 -50 -38 -50 -56 0 -10 -6 -14 -15 -10 -10 3 -15 -1 -15 -13 0
-20 -19 -31 -51 -31 -11 0 -30 -7 -42 -15 -32 -20 -145 -26 -163 -7 -25 24
-216 109 -319 141 -128 39 -146 51 -139 94 4 18 15 39 25 48 10 9 15 19 12 23
-4 3 -1 6 5 6 7 0 12 7 12 15 0 10 10 15 28 15 15 0 59 10 97 21 81 24 188 25
219 3 19 -13 16 -14 -34 -14 -42 0 -51 -3 -42 -12 7 -7 52 -14 104 -16 94 -4
131 -19 120 -50 -9 -27 20 -42 82 -43 54 -1 254 -25 232 -28 -24 -3 21 -31 51
-31 19 0 41 -7 49 -15 9 -9 33 -15 57 -15 31 0 45 -5 54 -20 15 -23 77 -37 97
-21 16 14 48 2 195 -72 71 -36 105 -48 108 -39 10 26 48 10 193 -79 30 -19 65
-41 78 -50 33 -24 142 -152 142 -167 0 -7 4 -11 8 -8 5 3 24 -11 43 -31 54
-56 129 -113 150 -113 43 0 10 77 -37 84 -29 4 -154 119 -154 141 l1 20 11
-20 c6 -11 20 -29 32 -40 21 -20 219 -120 237 -120 5 0 13 -5 17 -11 9 -14 55
-26 103 -28 22 -1 61 -17 98 -39 72 -43 81 -45 55 -15 l-19 21 28 -18 27 -17
-21 -35 c-13 -21 -19 -42 -15 -57 3 -13 -1 -40 -9 -60 -14 -33 -14 -37 0 -42
8 -4 23 -4 33 -2 17 5 18 -2 15 -81 -2 -47 -10 -104 -18 -126 -7 -22 -13 -47
-14 -55 0 -8 -12 -71 -26 -140 -28 -132 -33 -213 -26 -425 3 -101 6 -119 11
-80 7 48 7 47 10 -30 2 -54 6 -18 11 110 11 286 26 462 48 545 l20 75 2 -85 2
-85 7 90 c4 50 10 135 13 190 l6 100 -12 -100 c-16 -129 -25 -106 -15 38 8
117 20 171 45 199 14 16 19 15 70 -8 65 -28 73 -29 73 -9 0 8 4 15 10 15 23 0
-6 -32 -41 -47 -39 -15 -54 -38 -43 -67 9 -25 52 -19 103 13 53 33 124 53 104
29 -15 -18 -2 -72 18 -76 8 -1 36 18 63 43 49 47 129 105 142 105 4 0 16 8 26
17 25 23 38 3 31 -45 -6 -34 -6 -35 23 -28 16 4 43 10 59 13 17 3 33 10 36 15
3 5 63 10 133 12 71 2 132 8 138 14 20 20 -4 32 -67 32 -65 0 -115 12 -115 28
0 5 29 28 64 51 66 43 116 92 116 116 0 20 -28 45 -51 45 -11 0 -39 -18 -62
-39 -46 -43 -150 -94 -181 -89 -15 2 -26 20 -42 65 -11 34 -17 60 -11 56 16
-10 -3 40 -32 80 -36 52 -79 121 -80 128 -1 4 21 7 47 7 34 0 60 7 85 23 44
29 43 43 -6 47 -25 2 -37 8 -37 19 0 11 -6 14 -23 9 -13 -3 -40 -1 -60 5 -31
8 -37 14 -37 38 0 59 -80 90 -99 39 -7 -19 -17 -10 -90 73 -90 104 -157 205
-138 212 9 3 9 10 -1 31 -6 15 -12 47 -12 73 l0 45 21 -23 20 -24 -6 30 c-15
64 -10 92 25 132 65 75 127 98 180 68 l25 -14 -25 -1 c-31 0 -113 -29 -86 -30
11 0 34 5 52 12 18 6 39 8 50 3 16 -7 15 -9 -11 -15 -22 -6 -11 -8 42 -9 l71
-1 15 -45 c19 -53 56 -110 128 -190 83 -92 121 -150 188 -278 61 -118 157
-276 198 -325 20 -24 23 -25 37 -12 14 14 14 19 -4 53 -26 48 -11 47 34 -3
l36 -40 0 -111 c0 -130 15 -199 90 -404 27 -77 50 -150 50 -163 0 -13 11 -47
24 -75 37 -81 37 -84 42 -215 3 -94 0 -132 -11 -159 -19 -45 -19 -67 1 -84 9
-7 13 -21 10 -33 -5 -20 9 -46 25 -46 5 0 18 9 29 20 19 19 20 19 20 2 0 -22
30 -52 52 -52 23 0 48 34 48 66 0 16 -9 65 -19 109 -10 44 -22 102 -26 129 -3
27 -9 56 -13 65 -4 11 2 10 22 -7 16 -12 34 -22 41 -22 7 0 23 -9 37 -20 15
-12 29 -15 34 -10 13 13 75 -5 157 -46 94 -47 97 -46 97 27 0 51 -4 65 -22 80
l-21 19 23 0 c37 0 15 12 -27 15 -54 4 -55 4 -49 14 4 5 -3 7 -13 4 -11 -3
-51 11 -93 31 -42 22 -62 28 -48 17 14 -11 22 -21 18 -21 -15 0 -98 40 -98 48
0 14 -41 55 -75 75 -26 16 -25 14 8 -16 30 -28 35 -36 21 -41 -19 -7 -37 2
-28 15 3 6 -2 19 -12 30 -10 11 -19 25 -20 32 -1 7 -25 91 -54 187 -36 121
-53 200 -57 258 -3 45 -9 82 -13 82 -5 0 -7 21 -7 48 1 33 -6 61 -23 93 -68
128 -114 201 -129 207 -9 3 -21 13 -27 21 -32 43 -183 223 -229 271 -30 33
-55 69 -60 88 -4 18 -17 40 -31 48 -14 9 -26 30 -30 50 -7 40 -19 50 -38 35
-11 -9 -15 -6 -20 14 -4 14 -22 47 -40 73 -19 26 -50 82 -70 125 -34 74 -36
77 -69 77 -23 0 -52 12 -86 35 -49 34 -81 44 -81 26z m-1396 -3063 c7 -18 25
-44 40 -58 23 -21 30 -23 56 -13 29 11 29 11 39 -39 6 -27 11 -67 11 -88 l0
-40 -59 0 c-33 0 -63 -4 -66 -10 -3 -5 2 -10 11 -10 10 0 15 -3 11 -6 -9 -9
-120 -24 -220 -31 -104 -6 -117 1 -117 62 0 62 -20 74 -65 40 -23 -18 -35 -23
-35 -14 0 29 -21 89 -32 89 -7 0 -8 -17 -4 -50 6 -41 4 -49 -8 -44 -32 12 -65
-123 -35 -142 21 -13 -8 -24 -73 -29 -36 -2 -82 -12 -102 -22 -43 -20 -56 -11
-56 44 0 44 -20 83 -42 83 -10 0 -18 -5 -18 -11 0 -5 -4 -8 -8 -5 -5 3 -6 -8
-4 -25 4 -30 -6 -37 -26 -17 -15 15 -42 -7 -42 -36 0 -12 -5 -27 -11 -33 -6
-6 -14 -26 -18 -44 -8 -38 -27 -47 -106 -48 -42 0 -47 1 -30 11 34 20 -67 36
-189 30 l-106 -5 -11 32 c-12 34 -29 42 -29 14 0 -15 -4 -13 -20 7 -26 33 -25
46 6 67 24 16 27 16 36 0 15 -28 33 -19 67 33 49 75 73 90 147 90 74 0 180 21
284 55 41 14 215 59 385 101 171 41 319 77 330 80 11 3 2 -7 -20 -22 -23 -16
-34 -29 -26 -32 19 -6 96 26 116 48 10 11 20 20 21 20 2 0 10 -15 18 -32z"/>
<path d="M3321 3020 c15 -33 113 -153 218 -269 135 -147 179 -201 234 -281 59
-88 104 -144 92 -115 -4 11 -8 28 -9 37 0 9 -4 14 -8 12 -4 -3 -5 3 -1 12 4
12 3 15 -5 10 -8 -5 -10 -1 -5 10 4 12 3 15 -5 10 -8 -5 -10 -2 -6 9 6 14 8
14 20 -2 7 -10 14 -14 14 -8 0 5 24 -15 54 -44 30 -29 58 -51 63 -48 6 4 23
-7 39 -24 16 -17 38 -35 49 -41 14 -8 12 -2 -9 20 -42 45 -28 60 20 21 22 -19
41 -38 41 -43 1 -4 48 -34 105 -67 116 -66 200 -99 206 -80 2 7 34 11 89 11
107 0 100 -12 -10 -21 l-82 -6 67 -1 c69 -2 153 21 142 39 -3 5 4 9 14 9 26 0
50 28 31 35 -14 5 -142 15 -249 19 -33 1 -72 11 -97 24 -23 12 -65 31 -94 42
-62 25 -182 106 -250 170 -27 25 -49 45 -49 43 0 -2 7 -20 15 -41 13 -33 13
-35 0 -17 -52 70 -82 103 -112 122 -18 12 -33 20 -33 18 0 -3 24 -33 53 -67
84 -100 120 -149 115 -154 -5 -5 -16 7 -118 133 -30 37 -112 127 -181 198 -69
72 -149 154 -177 183 -28 30 -55 51 -61 48 -5 -3 -28 17 -51 44 -24 28 -45 48
-48 46 -3 -3 -11 2 -19 12 -12 15 -13 14 -2 -8z"/>
<path d="M4220 2048 c-25 -22 -89 -63 -144 -90 -54 -27 -96 -51 -93 -54 3 -3
21 2 41 10 49 21 37 4 -14 -19 -22 -10 -40 -22 -40 -27 0 -7 -99 -56 -124 -61
-5 -1 -20 -11 -33 -22 -13 -11 -66 -42 -116 -68 -51 -26 -81 -45 -67 -41 36
10 160 72 195 99 17 12 65 37 108 55 42 17 80 36 83 42 8 13 92 49 126 53 50
7 268 128 254 142 -2 3 -20 -6 -38 -20 -37 -28 -218 -120 -224 -114 -2 2 15
19 37 38 23 19 53 45 67 59 14 14 22 18 17 10 -4 -8 -4 -12 0 -8 7 7 18 59 12
58 -1 -1 -22 -19 -47 -42z"/>
<path d="M4872 2031 c-10 -6 -4 -12 20 -20 71 -27 75 -32 23 -27 -46 4 -48 3
-25 -10 14 -7 34 -14 45 -14 15 -1 16 -3 5 -7 -10 -4 -1 -11 25 -19 l40 -14
-40 4 c-22 2 -49 7 -60 11 -15 6 -17 5 -9 -4 6 -7 36 -16 65 -20 30 -4 69 -16
88 -25 33 -17 34 -19 16 -32 -22 -16 -12 -19 16 -4 11 7 19 7 19 1 0 -5 -6
-12 -12 -15 -7 -3 -4 -5 7 -3 35 4 29 34 -12 56 l-38 21 38 -6 c32 -5 37 -4
37 13 0 24 -109 91 -163 100 -20 3 -40 10 -43 14 -7 11 -25 11 -42 0z"/>
</g>
</svg>
